<svg xmlns="http://www.w3.org/2000/svg" viewBox="0 0 32 32">
  <rect width="32" height="32" rx="6" fill="#9333ea"/>
  <path d="M16 8c-3.5 0-6.5 2.5-7 6-.3 2 .5 3.8 2 5 .5.4.8 1 .8 1.6 0 .4-.1.8-.3 1.2-.2.3-.2.7 0 1 .2.3.5.5.9.5h7.2c.4 0 .7-.2.9-.5.2-.3.2-.7 0-1-.2-.4-.3-.8-.3-1.2 0-.6.3-1.2.8-1.6 1.5-1.2 2.3-3 2-5-.5-3.5-3.5-6-7-6zm-1.5 15v.5c0 .8.7 1.5 1.5 1.5s1.5-.7 1.5-1.5V23h-3z" fill="white"/>
  <circle cx="14" cy="14" r="1" fill="white"/>
  <circle cx="18" cy="14" r="1" fill="white"/>
</svg>
