<svg width="960" height="620" viewBox="0 0 960 620" fill="none" xmlns="http://www.w3.org/2000/svg">
  <rect width="960" height="620" fill="#F6F5F2"/>
  <rect x="135" y="68" width="690" height="488" rx="28" fill="white" stroke="#E7E4DC" stroke-width="3"/>
  <rect x="135" y="68" width="690" height="68" rx="28" fill="#FBFAF7"/>
  <rect x="135" y="108" width="690" height="28" fill="#FBFAF7"/>
  <rect x="175" y="88" width="30" height="30" rx="9" fill="#2F6F5E"/>
  <path d="M183 102L189 108L199 96" stroke="white" stroke-width="3" stroke-linecap="round" stroke-linejoin="round"/>
  <rect x="218" y="92" width="148" height="11" rx="5.5" fill="#1C1B19"/>
  <rect x="218" y="109" width="104" height="7" rx="3.5" fill="#9B9A93"/>
  <rect x="680" y="92" width="105" height="28" rx="14" fill="#E4EFE9"/>
  <circle cx="699" cy="106" r="5" fill="#2F6F5E"/>
  <rect x="712" y="102" width="52" height="8" rx="4" fill="#1D4A3D"/>
  <rect x="197" y="170" width="97" height="24" rx="12" fill="#E4EFE9"/>
  <rect x="211" y="178" width="70" height="8" rx="4" fill="#1D4A3D"/>
  <rect x="197" y="216" width="327" height="20" rx="10" fill="#1C1B19"/>
  <rect x="197" y="247" width="440" height="10" rx="5" fill="#9B9A93"/>
  <rect x="197" y="288" width="565" height="64" rx="12" fill="#FBFAF7" stroke="#D8D4C8" stroke-width="2"/>
  <circle cx="229" cy="320" r="14" fill="#2F6F5E"/>
  <path d="M223 320L228 325L236 315" stroke="white" stroke-width="2.5" stroke-linecap="round" stroke-linejoin="round"/>
  <rect x="260" y="313" width="268" height="12" rx="6" fill="#6B6A64"/>
  <rect x="197" y="365" width="565" height="64" rx="12" fill="#FBFAF7" stroke="#E7E4DC" stroke-width="2"/>
  <circle cx="229" cy="397" r="14" stroke="#D8D4C8" stroke-width="2"/>
  <rect x="260" y="390" width="222" height="12" rx="6" fill="#9B9A93"/>
  <rect x="197" y="461" width="565" height="50" rx="10" fill="#2F6F5E"/>
  <rect x="395" y="482" width="169" height="10" rx="5" fill="white"/>
  <circle cx="601" cy="487" r="6" stroke="white" stroke-width="2"/>
  <path d="M598 487H606M603 482L608 487L603 492" stroke="white" stroke-width="2" stroke-linecap="round" stroke-linejoin="round"/>
</svg>
